<svg id="Outline" enable-background="new 0 0 512 512" height="512" viewBox="0 0 512 512" width="512" xmlns="http://www.w3.org/2000/svg"><circle cx="176" cy="56" r="8"/><path d="m216 64h56c4.418 0 8-3.582 8-8s-3.582-8-8-8h-56c-4.418 0-8 3.582-8 8s3.582 8 8 8z"/><path d="m360 496h56c4.418 0 8-3.582 8-8v-192c-.006-6.565-1.621-13.028-4.706-18.823l-59.294-111.177v-110c-.025-22.081-17.919-39.975-40-40h-192c-22.081.025-39.975 17.919-40 40v400c.025 22.081 17.919 39.975 40 40h224zm48-200v184h-48c-39.156-.045-71.115-31.339-71.984-70.485.401-2.082-.04-4.237-1.227-5.994l-51.895-76.8c-7.421-10.983-4.534-25.902 6.449-33.323s25.902-4.534 33.323 6.449c.047.07.1.138.145.207l46.705 64.636c1.505 2.08 3.917 3.311 6.484 3.31h24c4.418 0 8-3.582 8-8v-160l45.177 84.706c1.85 3.477 2.819 7.355 2.823 11.294zm-64-128v184h-11.911l-44.24-61.226c-12.399-18.284-37.272-23.055-55.557-10.656-18.284 12.399-23.055 37.272-10.656 55.556l43.464 64.326h-161.1v-304h240zm-216-136h192c13.248.015 23.985 10.752 24 24v24h-240v-24c.015-13.248 10.752-23.985 24-24zm0 448c-13.248-.015-23.985-10.752-24-24v-40h168.383c2.367 25.75 15.939 49.155 37.111 64z"/><path d="m224 424c-13.255 0-24 10.745-24 24s10.745 24 24 24 24-10.745 24-24c-.015-13.249-10.751-23.985-24-24zm0 32c-4.418 0-8-3.582-8-8s3.582-8 8-8 8 3.582 8 8c-.005 4.416-3.584 7.995-8 8z"/><path d="m128 192h192c4.418 0 8-3.582 8-8v-64c0-4.418-3.582-8-8-8h-192c-4.418 0-8 3.582-8 8v64c0 4.418 3.582 8 8 8zm8-64h176v48h-176z"/><path d="m224 144h-64c-4.418 0-8 3.582-8 8s3.582 8 8 8h64c4.418 0 8-3.582 8-8s-3.582-8-8-8z"/><path d="m128 224h112c4.418 0 8-3.582 8-8s-3.582-8-8-8h-112c-4.418 0-8 3.582-8 8s3.582 8 8 8z"/><path d="m240 240h-48c-4.418 0-8 3.582-8 8s3.582 8 8 8h48c4.418 0 8-3.582 8-8s-3.582-8-8-8z"/><path d="m128 288h48c4.418 0 8-3.582 8-8s-3.582-8-8-8h-48c-4.418 0-8 3.582-8 8s3.582 8 8 8z"/><path d="m128 320h48c4.418 0 8-3.582 8-8s-3.582-8-8-8h-48c-4.418 0-8 3.582-8 8s3.582 8 8 8z"/><circle cx="128" cy="376" r="8"/><circle cx="160" cy="376" r="8"/><circle cx="192" cy="376" r="8"/><path d="m128 352h64c4.418 0 8-3.582 8-8s-3.582-8-8-8h-64c-4.418 0-8 3.582-8 8s3.582 8 8 8z"/><path d="m320 208h-48c-4.418 0-8 3.582-8 8v32c0 4.418 3.582 8 8 8h48c4.418 0 8-3.582 8-8v-32c0-4.418-3.582-8-8-8zm-8 32h-32v-16h32z"/><path d="m128 256h32c4.418 0 8-3.582 8-8s-3.582-8-8-8h-32c-4.418 0-8 3.582-8 8s3.582 8 8 8z"/></svg>